# xmcd CD database file
#
# Track frame offsets:
#	150
#	9639
#	20414
#	30643
#	42195
#	53872
#	64794
#	73865
#	80892
#	89858
#	102724
#	111861
#	123075
#	134231
#	143934
#
# Disc length: 2051 seconds
#
# Revision: 2
# Processed by: cddbd v1.5.2PL0 Copyright (c) Steve Scherf et al.
# Submitted via: CDex 1.50
#
DISCID=e508010f
DTITLE=Conway Twitty - Conway Twitty The Greatest Hits Of Conway Twitty
DYEAR=1900
DGENRE=Country
TTITLE0=Ever Since You Went Away
TTITLE1=Big Town
TTITLE2=Let Me Be The Judge
TTITLE3=You Made Me What I Am Today
TTITLE4=Sitting In A Dim Cafe
TTITLE5=Have I Been Away Too Long
TTITLE6=Wonder If You Told Her About Me
TTITLE7=Treat Me Mean, Treat Me Cruel
TTITLE8=The Road That I Walk
TTITLE9=Reputation
TTITLE10=Don't Go To Far
TTITLE11=Broken Heart
TTITLE12=Angel's Wing
TTITLE13=Riskin' One
TTITLE14=Where I Stand
EXTD=
EXTT0=
EXTT1=
EXTT2=
EXTT3=
EXTT4=
EXTT5=
EXTT6=
EXTT7=
EXTT8=
EXTT9=
EXTT10=
EXTT11=
EXTT12=
EXTT13=
EXTT14=
PLAYORDER=
